<svg width="28" height="28" viewBox="0 0 24 24" fill="none" xmlns="http://www.w3.org/2000/svg">
<path opacity="0.3" d="M12 3C10.8181 3 9.64778 3.23279 8.55585 3.68508C7.46392 4.13738 6.47177 4.80031 5.63604 5.63604C4.80031 6.47177 4.13738 7.46392 3.68508 8.55585C3.23279 9.64778 3 10.8181 3 12C3 13.1819 3.23279 14.3522 3.68508 15.4442C4.13738 16.5361 4.80031 17.5282 5.63604 18.364C6.47177 19.1997 7.46392 19.8626 8.55585 20.3149C9.64778 20.7672 10.8181 21 12 21C13.1819 21 14.3522 20.7672 15.4442 20.3149C16.5361 19.8626 17.5282 19.1997 18.364 18.364C19.1997 17.5282 19.8626 16.5361 20.3149 15.4442C20.7672 14.3522 21 13.1819 21 12C21 10.8181 20.7672 9.64778 20.3149 8.55585C19.8626 7.46392 19.1997 6.47177 18.364 5.63604C17.5282 4.80031 16.5361 4.13738 15.4442 3.68508C14.3522 3.23279 13.1819 3 12 3Z" fill="#0057FF"/>
<path d="M12 22C6.5 22 2 17.5 2 12C2 6.5 6.5 2 12 2C17.5 2 22 6.5 22 12C22 17.5 17.5 22 12 22ZM12 4C7.6 4 4 7.6 4 12C4 16.4 7.6 20 12 20C16.4 20 20 16.4 20 12C20 7.6 16.4 4 12 4Z" fill="#0057FF"/>
<path d="M15.5 9C16.3 9 17 9.7 17 10.5V11H14V10.5C14 9.7 14.7 9 15.5 9ZM8.5 9C8.10218 9 7.72064 9.15804 7.43934 9.43934C7.15804 9.72064 7 10.1022 7 10.5C7 10.8978 7.15804 11.2794 7.43934 11.5607C7.72064 11.842 8.10218 12 8.5 12C8.89782 12 9.27936 11.842 9.56066 11.5607C9.84196 11.2794 10 10.8978 10 10.5C10 10.1022 9.84196 9.72064 9.56066 9.43934C9.27936 9.15804 8.89782 9 8.5 9ZM12 18C9.7 18 9 16 9 16C13 16 17 12 17 12C17 12 16 18 12 18Z" fill="#0057FF"/>
</svg>
