<svg width="34" height="34" viewBox="0 0 34 34" fill="none" xmlns="http://www.w3.org/2000/svg">
<g clip-path="url(#clip0)">
<path opacity="0.3" d="M8.48532 12.7279L16.9706 29.6985L25.4559 12.7279C20.0819 10.0409 13.8593 10.0409 8.48532 12.7279Z" fill="black"/>
<path d="M19.0918 16.2634C18.7168 16.6385 18.506 17.1472 18.506 17.6777C18.506 18.2081 18.7168 18.7168 19.0918 19.0919C19.4669 19.4669 19.9756 19.6777 20.506 19.6777C21.0365 19.6777 21.5452 19.4669 21.9203 19.0919C22.2953 18.7168 22.506 18.2081 22.506 17.6777C22.506 17.1472 22.2953 16.6385 21.9203 16.2634C21.5452 15.8884 21.0365 15.6777 20.506 15.6777C19.9756 15.6777 19.4669 15.8884 19.0918 16.2634ZM17.3241 22.2739C17.0428 22.5552 16.8847 22.9367 16.8847 23.3345C16.8847 23.7323 17.0428 24.1139 17.3241 24.3952C17.6054 24.6765 17.9869 24.8345 18.3847 24.8345C18.7825 24.8345 19.1641 24.6765 19.4454 24.3952C19.7267 24.1139 19.8847 23.7323 19.8847 23.3345C19.8847 22.9367 19.7267 22.5552 19.4454 22.2739C19.1641 21.9925 18.7825 21.8345 18.3847 21.8345C17.9869 21.8345 17.6054 21.9925 17.3241 22.2739ZM12.0208 16.2634C11.6457 16.6385 11.435 17.1472 11.435 17.6777C11.435 18.2081 11.6457 18.7168 12.0208 19.0919C12.3958 19.4669 12.9045 19.6777 13.435 19.6777C13.9654 19.6777 14.4741 19.4669 14.8492 19.0919C15.2243 18.7168 15.435 18.2081 15.435 17.6777C15.435 17.1472 15.2243 16.6385 14.8492 16.2634C14.4741 15.8884 13.9654 15.6777 13.435 15.6777C12.9045 15.6777 12.3958 15.8884 12.0208 16.2634ZM24.3951 14.3543C19.7989 12.1622 14.2835 12.1622 9.68731 14.3543L8.83878 12.5158C13.9299 10.1116 20.0818 10.0409 25.2437 12.5158L24.3951 14.3543Z" fill="black"/>
<path d="M17.6777 30.4056C17.4656 30.6177 17.2534 30.6884 16.9706 30.6884C16.5463 30.6884 16.1928 30.4763 16.1221 30.1227L7.63678 13.2936C7.42465 13.0815 7.42465 12.7986 7.49536 12.5865C7.56607 12.2329 7.70749 11.9501 7.99034 11.8087C13.6472 8.98025 20.294 8.98025 25.9508 11.8087C26.2337 11.9501 26.3751 12.2329 26.5165 12.5158C26.5165 12.7986 26.5165 13.0815 26.3751 13.2229L17.9605 30.1227C17.8191 30.2642 17.7484 30.3349 17.6777 30.4056ZM9.82881 13.2229L16.9706 27.4357L24.1124 13.2229C19.5869 11.243 14.3543 11.243 9.82881 13.2229Z" fill="black"/>
</g>
<defs>
<clipPath id="clip0">
<rect width="24" height="24" fill="white" transform="translate(0 16.9706) rotate(-45)"/>
</clipPath>
</defs>
</svg>
